solid OpenSCAD_Model
  facet normal -1 0 0
    outer loop
      vertex 25 25 0
      vertex 25 48 0.5
      vertex 25 48 0
    endloop
  endfacet
  facet normal -1 -0 0
    outer loop
      vertex 25 48 0.5
      vertex 25 25 0
      vertex 25 25 0.5
    endloop
  endfacet
  facet normal 0 0 1
    outer loop
      vertex 48 48 0.5
      vertex 47 47 0.5
      vertex 48 25 0.5
    endloop
  endfacet
  facet normal 0 0 1
    outer loop
      vertex 48 48 0.5
      vertex 26 47 0.5
      vertex 47 47 0.5
    endloop
  endfacet
  facet normal 0 0 1
    outer loop
      vertex 26 47 0.5
      vertex 25 48 0.5
      vertex 26 26 0.5
    endloop
  endfacet
  facet normal -0 0 1
    outer loop
      vertex 25 48 0.5
      vertex 26 47 0.5
      vertex 48 48 0.5
    endloop
  endfacet
  facet normal -0 0 1
    outer loop
      vertex 47 26 0.5
      vertex 48 25 0.5
      vertex 47 47 0.5
    endloop
  endfacet
  facet normal -0 0 1
    outer loop
      vertex 26 26 0.5
      vertex 48 25 0.5
      vertex 47 26 0.5
    endloop
  endfacet
  facet normal 0 0 1
    outer loop
      vertex 26 26 0.5
      vertex 25 25 0.5
      vertex 48 25 0.5
    endloop
  endfacet
  facet normal 0 0 1
    outer loop
      vertex 25 25 0.5
      vertex 26 26 0.5
      vertex 25 48 0.5
    endloop
  endfacet
  facet normal 1 -0 0
    outer loop
      vertex 48 25 0.5
      vertex 48 48 0
      vertex 48 48 0.5
    endloop
  endfacet
  facet normal 1 0 0
    outer loop
      vertex 48 48 0
      vertex 48 25 0.5
      vertex 48 25 0
    endloop
  endfacet
  facet normal 0 0 -1
    outer loop
      vertex 48 25 0
      vertex 47 26 0
      vertex 48 48 0
    endloop
  endfacet
  facet normal 0 0 -1
    outer loop
      vertex 48 25 0
      vertex 26 26 0
      vertex 47 26 0
    endloop
  endfacet
  facet normal -0 0 -1
    outer loop
      vertex 26 26 0
      vertex 25 25 0
      vertex 26 47 0
    endloop
  endfacet
  facet normal 0 0 -1
    outer loop
      vertex 25 25 0
      vertex 26 26 0
      vertex 48 25 0
    endloop
  endfacet
  facet normal 0 0 -1
    outer loop
      vertex 47 47 0
      vertex 48 48 0
      vertex 47 26 0
    endloop
  endfacet
  facet normal 0 0 -1
    outer loop
      vertex 26 47 0
      vertex 48 48 0
      vertex 47 47 0
    endloop
  endfacet
  facet normal 0 0 -1
    outer loop
      vertex 26 47 0
      vertex 25 48 0
      vertex 48 48 0
    endloop
  endfacet
  facet normal 0 0 -1
    outer loop
      vertex 25 48 0
      vertex 26 47 0
      vertex 25 25 0
    endloop
  endfacet
  facet normal 0 -1 0
    outer loop
      vertex 25 25 0
      vertex 48 25 0.5
      vertex 25 25 0.5
    endloop
  endfacet
  facet normal 0 -1 -0
    outer loop
      vertex 48 25 0.5
      vertex 25 25 0
      vertex 48 25 0
    endloop
  endfacet
  facet normal 0 1 -0
    outer loop
      vertex 48 48 0
      vertex 25 48 0.5
      vertex 48 48 0.5
    endloop
  endfacet
  facet normal 0 1 0
    outer loop
      vertex 25 48 0.5
      vertex 48 48 0
      vertex 25 48 0
    endloop
  endfacet
  facet normal 1 -0 0
    outer loop
      vertex 26 26 0.5
      vertex 26 47 0
      vertex 26 47 0.5
    endloop
  endfacet
  facet normal 1 0 0
    outer loop
      vertex 26 47 0
      vertex 26 26 0.5
      vertex 26 26 0
    endloop
  endfacet
  facet normal -1 0 0
    outer loop
      vertex 47 26 0
      vertex 47 47 0.5
      vertex 47 47 0
    endloop
  endfacet
  facet normal -1 -0 0
    outer loop
      vertex 47 47 0.5
      vertex 47 26 0
      vertex 47 26 0.5
    endloop
  endfacet
  facet normal 0 1 -0
    outer loop
      vertex 47 26 0
      vertex 26 26 0.5
      vertex 47 26 0.5
    endloop
  endfacet
  facet normal 0 1 0
    outer loop
      vertex 26 26 0.5
      vertex 47 26 0
      vertex 26 26 0
    endloop
  endfacet
  facet normal 0 -1 0
    outer loop
      vertex 26 47 0
      vertex 47 47 0.5
      vertex 26 47 0.5
    endloop
  endfacet
  facet normal 0 -1 -0
    outer loop
      vertex 47 47 0.5
      vertex 26 47 0
      vertex 47 47 0
    endloop
  endfacet
  facet normal -1 0 0
    outer loop
      vertex 26.5 26.5 0
      vertex 26.5 46.5 0.5
      vertex 26.5 46.5 0
    endloop
  endfacet
  facet normal -1 -0 0
    outer loop
      vertex 26.5 46.5 0.5
      vertex 26.5 26.5 0
      vertex 26.5 26.5 0.5
    endloop
  endfacet
  facet normal -0 0 1
    outer loop
      vertex 26.5 46.5 0.5
      vertex 46.5 26.5 0.5
      vertex 46.5 46.5 0.5
    endloop
  endfacet
  facet normal 0 0 1
    outer loop
      vertex 46.5 26.5 0.5
      vertex 26.5 46.5 0.5
      vertex 26.5 26.5 0.5
    endloop
  endfacet
  facet normal 1 -0 0
    outer loop
      vertex 46.5 26.5 0.5
      vertex 46.5 46.5 0
      vertex 46.5 46.5 0.5
    endloop
  endfacet
  facet normal 1 0 0
    outer loop
      vertex 46.5 46.5 0
      vertex 46.5 26.5 0.5
      vertex 46.5 26.5 0
    endloop
  endfacet
  facet normal 0 1 -0
    outer loop
      vertex 46.5 46.5 0
      vertex 26.5 46.5 0.5
      vertex 46.5 46.5 0.5
    endloop
  endfacet
  facet normal 0 1 0
    outer loop
      vertex 26.5 46.5 0.5
      vertex 46.5 46.5 0
      vertex 26.5 46.5 0
    endloop
  endfacet
  facet normal 0 0 -1
    outer loop
      vertex 26.5 26.5 0
      vertex 46.5 46.5 0
      vertex 46.5 26.5 0
    endloop
  endfacet
  facet normal -0 0 -1
    outer loop
      vertex 46.5 46.5 0
      vertex 26.5 26.5 0
      vertex 26.5 46.5 0
    endloop
  endfacet
  facet normal 0 -1 0
    outer loop
      vertex 26.5 26.5 0
      vertex 46.5 26.5 0.5
      vertex 26.5 26.5 0.5
    endloop
  endfacet
  facet normal 0 -1 -0
    outer loop
      vertex 46.5 26.5 0.5
      vertex 26.5 26.5 0
      vertex 46.5 26.5 0
    endloop
  endfacet
  facet normal -1 0 0
    outer loop
      vertex 65 25 0
      vertex 65 48 0.5
      vertex 65 48 0
    endloop
  endfacet
  facet normal -1 -0 0
    outer loop
      vertex 65 48 0.5
      vertex 65 25 0
      vertex 65 25 0.5
    endloop
  endfacet
  facet normal 0 0 1
    outer loop
      vertex 88 48 0.5
      vertex 87 47 0.5
      vertex 88 25 0.5
    endloop
  endfacet
  facet normal 0 0 1
    outer loop
      vertex 88 48 0.5
      vertex 66 47 0.5
      vertex 87 47 0.5
    endloop
  endfacet
  facet normal 0 0 1
    outer loop
      vertex 66 47 0.5
      vertex 65 48 0.5
      vertex 66 26 0.5
    endloop
  endfacet
  facet normal -0 0 1
    outer loop
      vertex 65 48 0.5
      vertex 66 47 0.5
      vertex 88 48 0.5
    endloop
  endfacet
  facet normal -0 0 1
    outer loop
      vertex 87 26 0.5
      vertex 88 25 0.5
      vertex 87 47 0.5
    endloop
  endfacet
  facet normal -0 0 1
    outer loop
      vertex 66 26 0.5
      vertex 88 25 0.5
      vertex 87 26 0.5
    endloop
  endfacet
  facet normal 0 0 1
    outer loop
      vertex 66 26 0.5
      vertex 65 25 0.5
      vertex 88 25 0.5
    endloop
  endfacet
  facet normal 0 0 1
    outer loop
      vertex 65 25 0.5
      vertex 66 26 0.5
      vertex 65 48 0.5
    endloop
  endfacet
  facet normal 1 -0 0
    outer loop
      vertex 88 25 0.5
      vertex 88 48 0
      vertex 88 48 0.5
    endloop
  endfacet
  facet normal 1 0 0
    outer loop
      vertex 88 48 0
      vertex 88 25 0.5
      vertex 88 25 0
    endloop
  endfacet
  facet normal 0 0 -1
    outer loop
      vertex 88 25 0
      vertex 87 26 0
      vertex 88 48 0
    endloop
  endfacet
  facet normal 0 0 -1
    outer loop
      vertex 88 25 0
      vertex 66 26 0
      vertex 87 26 0
    endloop
  endfacet
  facet normal -0 0 -1
    outer loop
      vertex 66 26 0
      vertex 65 25 0
      vertex 66 47 0
    endloop
  endfacet
  facet normal 0 0 -1
    outer loop
      vertex 65 25 0
      vertex 66 26 0
      vertex 88 25 0
    endloop
  endfacet
  facet normal 0 0 -1
    outer loop
      vertex 87 47 0
      vertex 88 48 0
      vertex 87 26 0
    endloop
  endfacet
  facet normal 0 0 -1
    outer loop
      vertex 66 47 0
      vertex 88 48 0
      vertex 87 47 0
    endloop
  endfacet
  facet normal 0 0 -1
    outer loop
      vertex 66 47 0
      vertex 65 48 0
      vertex 88 48 0
    endloop
  endfacet
  facet normal 0 0 -1
    outer loop
      vertex 65 48 0
      vertex 66 47 0
      vertex 65 25 0
    endloop
  endfacet
  facet normal 0 -1 0
    outer loop
      vertex 65 25 0
      vertex 88 25 0.5
      vertex 65 25 0.5
    endloop
  endfacet
  facet normal 0 -1 -0
    outer loop
      vertex 88 25 0.5
      vertex 65 25 0
      vertex 88 25 0
    endloop
  endfacet
  facet normal 0 1 -0
    outer loop
      vertex 88 48 0
      vertex 65 48 0.5
      vertex 88 48 0.5
    endloop
  endfacet
  facet normal 0 1 0
    outer loop
      vertex 65 48 0.5
      vertex 88 48 0
      vertex 65 48 0
    endloop
  endfacet
  facet normal 1 -0 0
    outer loop
      vertex 66 26 0.5
      vertex 66 47 0
      vertex 66 47 0.5
    endloop
  endfacet
  facet normal 1 0 0
    outer loop
      vertex 66 47 0
      vertex 66 26 0.5
      vertex 66 26 0
    endloop
  endfacet
  facet normal -1 0 0
    outer loop
      vertex 87 26 0
      vertex 87 47 0.5
      vertex 87 47 0
    endloop
  endfacet
  facet normal -1 -0 0
    outer loop
      vertex 87 47 0.5
      vertex 87 26 0
      vertex 87 26 0.5
    endloop
  endfacet
  facet normal 0 1 -0
    outer loop
      vertex 87 26 0
      vertex 66 26 0.5
      vertex 87 26 0.5
    endloop
  endfacet
  facet normal 0 1 0
    outer loop
      vertex 66 26 0.5
      vertex 87 26 0
      vertex 66 26 0
    endloop
  endfacet
  facet normal 0 -1 0
    outer loop
      vertex 66 47 0
      vertex 87 47 0.5
      vertex 66 47 0.5
    endloop
  endfacet
  facet normal 0 -1 -0
    outer loop
      vertex 87 47 0.5
      vertex 66 47 0
      vertex 87 47 0
    endloop
  endfacet
  facet normal -1 0 0
    outer loop
      vertex 66.5 26.5 0
      vertex 66.5 46.5 0.5
      vertex 66.5 46.5 0
    endloop
  endfacet
  facet normal -1 -0 0
    outer loop
      vertex 66.5 46.5 0.5
      vertex 66.5 26.5 0
      vertex 66.5 26.5 0.5
    endloop
  endfacet
  facet normal -0 0 1
    outer loop
      vertex 66.5 46.5 0.5
      vertex 86.5 26.5 0.5
      vertex 86.5 46.5 0.5
    endloop
  endfacet
  facet normal 0 0 1
    outer loop
      vertex 86.5 26.5 0.5
      vertex 66.5 46.5 0.5
      vertex 66.5 26.5 0.5
    endloop
  endfacet
  facet normal 1 -0 0
    outer loop
      vertex 86.5 26.5 0.5
      vertex 86.5 46.5 0
      vertex 86.5 46.5 0.5
    endloop
  endfacet
  facet normal 1 0 0
    outer loop
      vertex 86.5 46.5 0
      vertex 86.5 26.5 0.5
      vertex 86.5 26.5 0
    endloop
  endfacet
  facet normal 0 1 -0
    outer loop
      vertex 86.5 46.5 0
      vertex 66.5 46.5 0.5
      vertex 86.5 46.5 0.5
    endloop
  endfacet
  facet normal 0 1 0
    outer loop
      vertex 66.5 46.5 0.5
      vertex 86.5 46.5 0
      vertex 66.5 46.5 0
    endloop
  endfacet
  facet normal 0 0 -1
    outer loop
      vertex 66.5 26.5 0
      vertex 86.5 46.5 0
      vertex 86.5 26.5 0
    endloop
  endfacet
  facet normal -0 0 -1
    outer loop
      vertex 86.5 46.5 0
      vertex 66.5 26.5 0
      vertex 66.5 46.5 0
    endloop
  endfacet
  facet normal 0 -1 0
    outer loop
      vertex 66.5 26.5 0
      vertex 86.5 26.5 0.5
      vertex 66.5 26.5 0.5
    endloop
  endfacet
  facet normal 0 -1 -0
    outer loop
      vertex 86.5 26.5 0.5
      vertex 66.5 26.5 0
      vertex 86.5 26.5 0
    endloop
  endfacet
  facet normal -1 0 0
    outer loop
      vertex 105 25 0
      vertex 105 48 0.5
      vertex 105 48 0
    endloop
  endfacet
  facet normal -1 -0 0
    outer loop
      vertex 105 48 0.5
      vertex 105 25 0
      vertex 105 25 0.5
    endloop
  endfacet
  facet normal 0 0 1
    outer loop
      vertex 128 48 0.5
      vertex 127 47 0.5
      vertex 128 25 0.5
    endloop
  endfacet
  facet normal 0 0 1
    outer loop
      vertex 128 48 0.5
      vertex 106 47 0.5
      vertex 127 47 0.5
    endloop
  endfacet
  facet normal 0 0 1
    outer loop
      vertex 106 47 0.5
      vertex 105 48 0.5
      vertex 106 26 0.5
    endloop
  endfacet
  facet normal -0 0 1
    outer loop
      vertex 105 48 0.5
      vertex 106 47 0.5
      vertex 128 48 0.5
    endloop
  endfacet
  facet normal -0 0 1
    outer loop
      vertex 127 26 0.5
      vertex 128 25 0.5
      vertex 127 47 0.5
    endloop
  endfacet
  facet normal -0 0 1
    outer loop
      vertex 106 26 0.5
      vertex 128 25 0.5
      vertex 127 26 0.5
    endloop
  endfacet
  facet normal 0 0 1
    outer loop
      vertex 106 26 0.5
      vertex 105 25 0.5
      vertex 128 25 0.5
    endloop
  endfacet
  facet normal 0 0 1
    outer loop
      vertex 105 25 0.5
      vertex 106 26 0.5
      vertex 105 48 0.5
    endloop
  endfacet
  facet normal 1 -0 0
    outer loop
      vertex 128 25 0.5
      vertex 128 48 0
      vertex 128 48 0.5
    endloop
  endfacet
  facet normal 1 0 0
    outer loop
      vertex 128 48 0
      vertex 128 25 0.5
      vertex 128 25 0
    endloop
  endfacet
  facet normal 0 0 -1
    outer loop
      vertex 128 25 0
      vertex 127 26 0
      vertex 128 48 0
    endloop
  endfacet
  facet normal 0 0 -1
    outer loop
      vertex 128 25 0
      vertex 106 26 0
      vertex 127 26 0
    endloop
  endfacet
  facet normal -0 0 -1
    outer loop
      vertex 106 26 0
      vertex 105 25 0
      vertex 106 47 0
    endloop
  endfacet
  facet normal 0 0 -1
    outer loop
      vertex 105 25 0
      vertex 106 26 0
      vertex 128 25 0
    endloop
  endfacet
  facet normal 0 0 -1
    outer loop
      vertex 127 47 0
      vertex 128 48 0
      vertex 127 26 0
    endloop
  endfacet
  facet normal 0 0 -1
    outer loop
      vertex 106 47 0
      vertex 128 48 0
      vertex 127 47 0
    endloop
  endfacet
  facet normal 0 0 -1
    outer loop
      vertex 106 47 0
      vertex 105 48 0
      vertex 128 48 0
    endloop
  endfacet
  facet normal 0 0 -1
    outer loop
      vertex 105 48 0
      vertex 106 47 0
      vertex 105 25 0
    endloop
  endfacet
  facet normal 0 -1 0
    outer loop
      vertex 105 25 0
      vertex 128 25 0.5
      vertex 105 25 0.5
    endloop
  endfacet
  facet normal 0 -1 -0
    outer loop
      vertex 128 25 0.5
      vertex 105 25 0
      vertex 128 25 0
    endloop
  endfacet
  facet normal 0 1 -0
    outer loop
      vertex 128 48 0
      vertex 105 48 0.5
      vertex 128 48 0.5
    endloop
  endfacet
  facet normal 0 1 0
    outer loop
      vertex 105 48 0.5
      vertex 128 48 0
      vertex 105 48 0
    endloop
  endfacet
  facet normal 1 -0 0
    outer loop
      vertex 106 26 0.5
      vertex 106 47 0
      vertex 106 47 0.5
    endloop
  endfacet
  facet normal 1 0 0
    outer loop
      vertex 106 47 0
      vertex 106 26 0.5
      vertex 106 26 0
    endloop
  endfacet
  facet normal -1 0 0
    outer loop
      vertex 127 26 0
      vertex 127 47 0.5
      vertex 127 47 0
    endloop
  endfacet
  facet normal -1 -0 0
    outer loop
      vertex 127 47 0.5
      vertex 127 26 0
      vertex 127 26 0.5
    endloop
  endfacet
  facet normal 0 1 -0
    outer loop
      vertex 127 26 0
      vertex 106 26 0.5
      vertex 127 26 0.5
    endloop
  endfacet
  facet normal 0 1 0
    outer loop
      vertex 106 26 0.5
      vertex 127 26 0
      vertex 106 26 0
    endloop
  endfacet
  facet normal 0 -1 0
    outer loop
      vertex 106 47 0
      vertex 127 47 0.5
      vertex 106 47 0.5
    endloop
  endfacet
  facet normal 0 -1 -0
    outer loop
      vertex 127 47 0.5
      vertex 106 47 0
      vertex 127 47 0
    endloop
  endfacet
  facet normal -1 0 0
    outer loop
      vertex 106.5 26.5 0
      vertex 106.5 46.5 0.5
      vertex 106.5 46.5 0
    endloop
  endfacet
  facet normal -1 -0 0
    outer loop
      vertex 106.5 46.5 0.5
      vertex 106.5 26.5 0
      vertex 106.5 26.5 0.5
    endloop
  endfacet
  facet normal -0 0 1
    outer loop
      vertex 106.5 46.5 0.5
      vertex 126.5 26.5 0.5
      vertex 126.5 46.5 0.5
    endloop
  endfacet
  facet normal 0 0 1
    outer loop
      vertex 126.5 26.5 0.5
      vertex 106.5 46.5 0.5
      vertex 106.5 26.5 0.5
    endloop
  endfacet
  facet normal 1 -0 0
    outer loop
      vertex 126.5 26.5 0.5
      vertex 126.5 46.5 0
      vertex 126.5 46.5 0.5
    endloop
  endfacet
  facet normal 1 0 0
    outer loop
      vertex 126.5 46.5 0
      vertex 126.5 26.5 0.5
      vertex 126.5 26.5 0
    endloop
  endfacet
  facet normal 0 1 -0
    outer loop
      vertex 126.5 46.5 0
      vertex 106.5 46.5 0.5
      vertex 126.5 46.5 0.5
    endloop
  endfacet
  facet normal 0 1 0
    outer loop
      vertex 106.5 46.5 0.5
      vertex 126.5 46.5 0
      vertex 106.5 46.5 0
    endloop
  endfacet
  facet normal 0 0 -1
    outer loop
      vertex 106.5 26.5 0
      vertex 126.5 46.5 0
      vertex 126.5 26.5 0
    endloop
  endfacet
  facet normal -0 0 -1
    outer loop
      vertex 126.5 46.5 0
      vertex 106.5 26.5 0
      vertex 106.5 46.5 0
    endloop
  endfacet
  facet normal 0 -1 0
    outer loop
      vertex 106.5 26.5 0
      vertex 126.5 26.5 0.5
      vertex 106.5 26.5 0.5
    endloop
  endfacet
  facet normal 0 -1 -0
    outer loop
      vertex 126.5 26.5 0.5
      vertex 106.5 26.5 0
      vertex 126.5 26.5 0
    endloop
  endfacet
  facet normal -1 0 0
    outer loop
      vertex 25 65 0
      vertex 25 88 0.5
      vertex 25 88 0
    endloop
  endfacet
  facet normal -1 -0 0
    outer loop
      vertex 25 88 0.5
      vertex 25 65 0
      vertex 25 65 0.5
    endloop
  endfacet
  facet normal 0 0 1
    outer loop
      vertex 48 88 0.5
      vertex 47 87 0.5
      vertex 48 65 0.5
    endloop
  endfacet
  facet normal 0 0 1
    outer loop
      vertex 48 88 0.5
      vertex 26 87 0.5
      vertex 47 87 0.5
    endloop
  endfacet
  facet normal 0 0 1
    outer loop
      vertex 26 87 0.5
      vertex 25 88 0.5
      vertex 26 66 0.5
    endloop
  endfacet
  facet normal -0 0 1
    outer loop
      vertex 25 88 0.5
      vertex 26 87 0.5
      vertex 48 88 0.5
    endloop
  endfacet
  facet normal -0 0 1
    outer loop
      vertex 47 66 0.5
      vertex 48 65 0.5
      vertex 47 87 0.5
    endloop
  endfacet
  facet normal -0 0 1
    outer loop
      vertex 26 66 0.5
      vertex 48 65 0.5
      vertex 47 66 0.5
    endloop
  endfacet
  facet normal 0 0 1
    outer loop
      vertex 26 66 0.5
      vertex 25 65 0.5
      vertex 48 65 0.5
    endloop
  endfacet
  facet normal 0 0 1
    outer loop
      vertex 25 65 0.5
      vertex 26 66 0.5
      vertex 25 88 0.5
    endloop
  endfacet
  facet normal 1 -0 0
    outer loop
      vertex 48 65 0.5
      vertex 48 88 0
      vertex 48 88 0.5
    endloop
  endfacet
  facet normal 1 0 0
    outer loop
      vertex 48 88 0
      vertex 48 65 0.5
      vertex 48 65 0
    endloop
  endfacet
  facet normal 0 0 -1
    outer loop
      vertex 48 65 0
      vertex 47 66 0
      vertex 48 88 0
    endloop
  endfacet
  facet normal 0 0 -1
    outer loop
      vertex 48 65 0
      vertex 26 66 0
      vertex 47 66 0
    endloop
  endfacet
  facet normal -0 0 -1
    outer loop
      vertex 26 66 0
      vertex 25 65 0
      vertex 26 87 0
    endloop
  endfacet
  facet normal 0 0 -1
    outer loop
      vertex 25 65 0
      vertex 26 66 0
      vertex 48 65 0
    endloop
  endfacet
  facet normal 0 0 -1
    outer loop
      vertex 47 87 0
      vertex 48 88 0
      vertex 47 66 0
    endloop
  endfacet
  facet normal 0 0 -1
    outer loop
      vertex 26 87 0
      vertex 48 88 0
      vertex 47 87 0
    endloop
  endfacet
  facet normal 0 0 -1
    outer loop
      vertex 26 87 0
      vertex 25 88 0
      vertex 48 88 0
    endloop
  endfacet
  facet normal 0 0 -1
    outer loop
      vertex 25 88 0
      vertex 26 87 0
      vertex 25 65 0
    endloop
  endfacet
  facet normal 0 -1 0
    outer loop
      vertex 25 65 0
      vertex 48 65 0.5
      vertex 25 65 0.5
    endloop
  endfacet
  facet normal 0 -1 -0
    outer loop
      vertex 48 65 0.5
      vertex 25 65 0
      vertex 48 65 0
    endloop
  endfacet
  facet normal 0 1 -0
    outer loop
      vertex 48 88 0
      vertex 25 88 0.5
      vertex 48 88 0.5
    endloop
  endfacet
  facet normal 0 1 0
    outer loop
      vertex 25 88 0.5
      vertex 48 88 0
      vertex 25 88 0
    endloop
  endfacet
  facet normal 1 -0 0
    outer loop
      vertex 26 66 0.5
      vertex 26 87 0
      vertex 26 87 0.5
    endloop
  endfacet
  facet normal 1 0 0
    outer loop
      vertex 26 87 0
      vertex 26 66 0.5
      vertex 26 66 0
    endloop
  endfacet
  facet normal -1 0 0
    outer loop
      vertex 47 66 0
      vertex 47 87 0.5
      vertex 47 87 0
    endloop
  endfacet
  facet normal -1 -0 0
    outer loop
      vertex 47 87 0.5
      vertex 47 66 0
      vertex 47 66 0.5
    endloop
  endfacet
  facet normal 0 1 -0
    outer loop
      vertex 47 66 0
      vertex 26 66 0.5
      vertex 47 66 0.5
    endloop
  endfacet
  facet normal 0 1 0
    outer loop
      vertex 26 66 0.5
      vertex 47 66 0
      vertex 26 66 0
    endloop
  endfacet
  facet normal 0 -1 0
    outer loop
      vertex 26 87 0
      vertex 47 87 0.5
      vertex 26 87 0.5
    endloop
  endfacet
  facet normal 0 -1 -0
    outer loop
      vertex 47 87 0.5
      vertex 26 87 0
      vertex 47 87 0
    endloop
  endfacet
  facet normal -1 0 0
    outer loop
      vertex 26.5 66.5 0
      vertex 26.5 86.5 0.5
      vertex 26.5 86.5 0
    endloop
  endfacet
  facet normal -1 -0 0
    outer loop
      vertex 26.5 86.5 0.5
      vertex 26.5 66.5 0
      vertex 26.5 66.5 0.5
    endloop
  endfacet
  facet normal -0 0 1
    outer loop
      vertex 26.5 86.5 0.5
      vertex 46.5 66.5 0.5
      vertex 46.5 86.5 0.5
    endloop
  endfacet
  facet normal 0 0 1
    outer loop
      vertex 46.5 66.5 0.5
      vertex 26.5 86.5 0.5
      vertex 26.5 66.5 0.5
    endloop
  endfacet
  facet normal 1 -0 0
    outer loop
      vertex 46.5 66.5 0.5
      vertex 46.5 86.5 0
      vertex 46.5 86.5 0.5
    endloop
  endfacet
  facet normal 1 0 0
    outer loop
      vertex 46.5 86.5 0
      vertex 46.5 66.5 0.5
      vertex 46.5 66.5 0
    endloop
  endfacet
  facet normal 0 1 -0
    outer loop
      vertex 46.5 86.5 0
      vertex 26.5 86.5 0.5
      vertex 46.5 86.5 0.5
    endloop
  endfacet
  facet normal 0 1 0
    outer loop
      vertex 26.5 86.5 0.5
      vertex 46.5 86.5 0
      vertex 26.5 86.5 0
    endloop
  endfacet
  facet normal 0 0 -1
    outer loop
      vertex 26.5 66.5 0
      vertex 46.5 86.5 0
      vertex 46.5 66.5 0
    endloop
  endfacet
  facet normal -0 0 -1
    outer loop
      vertex 46.5 86.5 0
      vertex 26.5 66.5 0
      vertex 26.5 86.5 0
    endloop
  endfacet
  facet normal 0 -1 0
    outer loop
      vertex 26.5 66.5 0
      vertex 46.5 66.5 0.5
      vertex 26.5 66.5 0.5
    endloop
  endfacet
  facet normal 0 -1 -0
    outer loop
      vertex 46.5 66.5 0.5
      vertex 26.5 66.5 0
      vertex 46.5 66.5 0
    endloop
  endfacet
  facet normal -1 0 0
    outer loop
      vertex 65 65 0
      vertex 65 88 0.5
      vertex 65 88 0
    endloop
  endfacet
  facet normal -1 -0 0
    outer loop
      vertex 65 88 0.5
      vertex 65 65 0
      vertex 65 65 0.5
    endloop
  endfacet
  facet normal 0 0 1
    outer loop
      vertex 88 88 0.5
      vertex 87 87 0.5
      vertex 88 65 0.5
    endloop
  endfacet
  facet normal 0 0 1
    outer loop
      vertex 88 88 0.5
      vertex 66 87 0.5
      vertex 87 87 0.5
    endloop
  endfacet
  facet normal 0 0 1
    outer loop
      vertex 66 87 0.5
      vertex 65 88 0.5
      vertex 66 66 0.5
    endloop
  endfacet
  facet normal -0 0 1
    outer loop
      vertex 65 88 0.5
      vertex 66 87 0.5
      vertex 88 88 0.5
    endloop
  endfacet
  facet normal -0 0 1
    outer loop
      vertex 87 66 0.5
      vertex 88 65 0.5
      vertex 87 87 0.5
    endloop
  endfacet
  facet normal -0 0 1
    outer loop
      vertex 66 66 0.5
      vertex 88 65 0.5
      vertex 87 66 0.5
    endloop
  endfacet
  facet normal 0 0 1
    outer loop
      vertex 66 66 0.5
      vertex 65 65 0.5
      vertex 88 65 0.5
    endloop
  endfacet
  facet normal 0 0 1
    outer loop
      vertex 65 65 0.5
      vertex 66 66 0.5
      vertex 65 88 0.5
    endloop
  endfacet
  facet normal 1 -0 0
    outer loop
      vertex 88 65 0.5
      vertex 88 88 0
      vertex 88 88 0.5
    endloop
  endfacet
  facet normal 1 0 0
    outer loop
      vertex 88 88 0
      vertex 88 65 0.5
      vertex 88 65 0
    endloop
  endfacet
  facet normal 0 0 -1
    outer loop
      vertex 88 65 0
      vertex 87 66 0
      vertex 88 88 0
    endloop
  endfacet
  facet normal 0 0 -1
    outer loop
      vertex 88 65 0
      vertex 66 66 0
      vertex 87 66 0
    endloop
  endfacet
  facet normal -0 0 -1
    outer loop
      vertex 66 66 0
      vertex 65 65 0
      vertex 66 87 0
    endloop
  endfacet
  facet normal 0 0 -1
    outer loop
      vertex 65 65 0
      vertex 66 66 0
      vertex 88 65 0
    endloop
  endfacet
  facet normal 0 0 -1
    outer loop
      vertex 87 87 0
      vertex 88 88 0
      vertex 87 66 0
    endloop
  endfacet
  facet normal 0 0 -1
    outer loop
      vertex 66 87 0
      vertex 88 88 0
      vertex 87 87 0
    endloop
  endfacet
  facet normal 0 0 -1
    outer loop
      vertex 66 87 0
      vertex 65 88 0
      vertex 88 88 0
    endloop
  endfacet
  facet normal 0 0 -1
    outer loop
      vertex 65 88 0
      vertex 66 87 0
      vertex 65 65 0
    endloop
  endfacet
  facet normal 0 -1 0
    outer loop
      vertex 65 65 0
      vertex 88 65 0.5
      vertex 65 65 0.5
    endloop
  endfacet
  facet normal 0 -1 -0
    outer loop
      vertex 88 65 0.5
      vertex 65 65 0
      vertex 88 65 0
    endloop
  endfacet
  facet normal 0 1 -0
    outer loop
      vertex 88 88 0
      vertex 65 88 0.5
      vertex 88 88 0.5
    endloop
  endfacet
  facet normal 0 1 0
    outer loop
      vertex 65 88 0.5
      vertex 88 88 0
      vertex 65 88 0
    endloop
  endfacet
  facet normal 1 -0 0
    outer loop
      vertex 66 66 0.5
      vertex 66 87 0
      vertex 66 87 0.5
    endloop
  endfacet
  facet normal 1 0 0
    outer loop
      vertex 66 87 0
      vertex 66 66 0.5
      vertex 66 66 0
    endloop
  endfacet
  facet normal -1 0 0
    outer loop
      vertex 87 66 0
      vertex 87 87 0.5
      vertex 87 87 0
    endloop
  endfacet
  facet normal -1 -0 0
    outer loop
      vertex 87 87 0.5
      vertex 87 66 0
      vertex 87 66 0.5
    endloop
  endfacet
  facet normal 0 1 -0
    outer loop
      vertex 87 66 0
      vertex 66 66 0.5
      vertex 87 66 0.5
    endloop
  endfacet
  facet normal 0 1 0
    outer loop
      vertex 66 66 0.5
      vertex 87 66 0
      vertex 66 66 0
    endloop
  endfacet
  facet normal 0 -1 0
    outer loop
      vertex 66 87 0
      vertex 87 87 0.5
      vertex 66 87 0.5
    endloop
  endfacet
  facet normal 0 -1 -0
    outer loop
      vertex 87 87 0.5
      vertex 66 87 0
      vertex 87 87 0
    endloop
  endfacet
  facet normal -1 0 0
    outer loop
      vertex 66.5 66.5 0
      vertex 66.5 86.5 0.5
      vertex 66.5 86.5 0
    endloop
  endfacet
  facet normal -1 -0 0
    outer loop
      vertex 66.5 86.5 0.5
      vertex 66.5 66.5 0
      vertex 66.5 66.5 0.5
    endloop
  endfacet
  facet normal -0 0 1
    outer loop
      vertex 66.5 86.5 0.5
      vertex 86.5 66.5 0.5
      vertex 86.5 86.5 0.5
    endloop
  endfacet
  facet normal 0 0 1
    outer loop
      vertex 86.5 66.5 0.5
      vertex 66.5 86.5 0.5
      vertex 66.5 66.5 0.5
    endloop
  endfacet
  facet normal 1 -0 0
    outer loop
      vertex 86.5 66.5 0.5
      vertex 86.5 86.5 0
      vertex 86.5 86.5 0.5
    endloop
  endfacet
  facet normal 1 0 0
    outer loop
      vertex 86.5 86.5 0
      vertex 86.5 66.5 0.5
      vertex 86.5 66.5 0
    endloop
  endfacet
  facet normal 0 1 -0
    outer loop
      vertex 86.5 86.5 0
      vertex 66.5 86.5 0.5
      vertex 86.5 86.5 0.5
    endloop
  endfacet
  facet normal 0 1 0
    outer loop
      vertex 66.5 86.5 0.5
      vertex 86.5 86.5 0
      vertex 66.5 86.5 0
    endloop
  endfacet
  facet normal 0 0 -1
    outer loop
      vertex 66.5 66.5 0
      vertex 86.5 86.5 0
      vertex 86.5 66.5 0
    endloop
  endfacet
  facet normal -0 0 -1
    outer loop
      vertex 86.5 86.5 0
      vertex 66.5 66.5 0
      vertex 66.5 86.5 0
    endloop
  endfacet
  facet normal 0 -1 0
    outer loop
      vertex 66.5 66.5 0
      vertex 86.5 66.5 0.5
      vertex 66.5 66.5 0.5
    endloop
  endfacet
  facet normal 0 -1 -0
    outer loop
      vertex 86.5 66.5 0.5
      vertex 66.5 66.5 0
      vertex 86.5 66.5 0
    endloop
  endfacet
  facet normal -1 0 0
    outer loop
      vertex 105 65 0
      vertex 105 88 0.5
      vertex 105 88 0
    endloop
  endfacet
  facet normal -1 -0 0
    outer loop
      vertex 105 88 0.5
      vertex 105 65 0
      vertex 105 65 0.5
    endloop
  endfacet
  facet normal 0 0 1
    outer loop
      vertex 128 88 0.5
      vertex 127 87 0.5
      vertex 128 65 0.5
    endloop
  endfacet
  facet normal 0 0 1
    outer loop
      vertex 128 88 0.5
      vertex 106 87 0.5
      vertex 127 87 0.5
    endloop
  endfacet
  facet normal 0 0 1
    outer loop
      vertex 106 87 0.5
      vertex 105 88 0.5
      vertex 106 66 0.5
    endloop
  endfacet
  facet normal -0 0 1
    outer loop
      vertex 105 88 0.5
      vertex 106 87 0.5
      vertex 128 88 0.5
    endloop
  endfacet
  facet normal -0 0 1
    outer loop
      vertex 127 66 0.5
      vertex 128 65 0.5
      vertex 127 87 0.5
    endloop
  endfacet
  facet normal -0 0 1
    outer loop
      vertex 106 66 0.5
      vertex 128 65 0.5
      vertex 127 66 0.5
    endloop
  endfacet
  facet normal 0 0 1
    outer loop
      vertex 106 66 0.5
      vertex 105 65 0.5
      vertex 128 65 0.5
    endloop
  endfacet
  facet normal 0 0 1
    outer loop
      vertex 105 65 0.5
      vertex 106 66 0.5
      vertex 105 88 0.5
    endloop
  endfacet
  facet normal 1 -0 0
    outer loop
      vertex 128 65 0.5
      vertex 128 88 0
      vertex 128 88 0.5
    endloop
  endfacet
  facet normal 1 0 0
    outer loop
      vertex 128 88 0
      vertex 128 65 0.5
      vertex 128 65 0
    endloop
  endfacet
  facet normal 0 0 -1
    outer loop
      vertex 128 65 0
      vertex 127 66 0
      vertex 128 88 0
    endloop
  endfacet
  facet normal 0 0 -1
    outer loop
      vertex 128 65 0
      vertex 106 66 0
      vertex 127 66 0
    endloop
  endfacet
  facet normal -0 0 -1
    outer loop
      vertex 106 66 0
      vertex 105 65 0
      vertex 106 87 0
    endloop
  endfacet
  facet normal 0 0 -1
    outer loop
      vertex 105 65 0
      vertex 106 66 0
      vertex 128 65 0
    endloop
  endfacet
  facet normal 0 0 -1
    outer loop
      vertex 127 87 0
      vertex 128 88 0
      vertex 127 66 0
    endloop
  endfacet
  facet normal 0 0 -1
    outer loop
      vertex 106 87 0
      vertex 128 88 0
      vertex 127 87 0
    endloop
  endfacet
  facet normal 0 0 -1
    outer loop
      vertex 106 87 0
      vertex 105 88 0
      vertex 128 88 0
    endloop
  endfacet
  facet normal 0 0 -1
    outer loop
      vertex 105 88 0
      vertex 106 87 0
      vertex 105 65 0
    endloop
  endfacet
  facet normal 0 -1 0
    outer loop
      vertex 105 65 0
      vertex 128 65 0.5
      vertex 105 65 0.5
    endloop
  endfacet
  facet normal 0 -1 -0
    outer loop
      vertex 128 65 0.5
      vertex 105 65 0
      vertex 128 65 0
    endloop
  endfacet
  facet normal 0 1 -0
    outer loop
      vertex 128 88 0
      vertex 105 88 0.5
      vertex 128 88 0.5
    endloop
  endfacet
  facet normal 0 1 0
    outer loop
      vertex 105 88 0.5
      vertex 128 88 0
      vertex 105 88 0
    endloop
  endfacet
  facet normal 1 -0 0
    outer loop
      vertex 106 66 0.5
      vertex 106 87 0
      vertex 106 87 0.5
    endloop
  endfacet
  facet normal 1 0 0
    outer loop
      vertex 106 87 0
      vertex 106 66 0.5
      vertex 106 66 0
    endloop
  endfacet
  facet normal -1 0 0
    outer loop
      vertex 127 66 0
      vertex 127 87 0.5
      vertex 127 87 0
    endloop
  endfacet
  facet normal -1 -0 0
    outer loop
      vertex 127 87 0.5
      vertex 127 66 0
      vertex 127 66 0.5
    endloop
  endfacet
  facet normal 0 1 -0
    outer loop
      vertex 127 66 0
      vertex 106 66 0.5
      vertex 127 66 0.5
    endloop
  endfacet
  facet normal 0 1 0
    outer loop
      vertex 106 66 0.5
      vertex 127 66 0
      vertex 106 66 0
    endloop
  endfacet
  facet normal 0 -1 0
    outer loop
      vertex 106 87 0
      vertex 127 87 0.5
      vertex 106 87 0.5
    endloop
  endfacet
  facet normal 0 -1 -0
    outer loop
      vertex 127 87 0.5
      vertex 106 87 0
      vertex 127 87 0
    endloop
  endfacet
  facet normal -1 0 0
    outer loop
      vertex 106.5 66.5 0
      vertex 106.5 86.5 0.5
      vertex 106.5 86.5 0
    endloop
  endfacet
  facet normal -1 -0 0
    outer loop
      vertex 106.5 86.5 0.5
      vertex 106.5 66.5 0
      vertex 106.5 66.5 0.5
    endloop
  endfacet
  facet normal -0 0 1
    outer loop
      vertex 106.5 86.5 0.5
      vertex 126.5 66.5 0.5
      vertex 126.5 86.5 0.5
    endloop
  endfacet
  facet normal 0 0 1
    outer loop
      vertex 126.5 66.5 0.5
      vertex 106.5 86.5 0.5
      vertex 106.5 66.5 0.5
    endloop
  endfacet
  facet normal 1 -0 0
    outer loop
      vertex 126.5 66.5 0.5
      vertex 126.5 86.5 0
      vertex 126.5 86.5 0.5
    endloop
  endfacet
  facet normal 1 0 0
    outer loop
      vertex 126.5 86.5 0
      vertex 126.5 66.5 0.5
      vertex 126.5 66.5 0
    endloop
  endfacet
  facet normal 0 1 -0
    outer loop
      vertex 126.5 86.5 0
      vertex 106.5 86.5 0.5
      vertex 126.5 86.5 0.5
    endloop
  endfacet
  facet normal 0 1 0
    outer loop
      vertex 106.5 86.5 0.5
      vertex 126.5 86.5 0
      vertex 106.5 86.5 0
    endloop
  endfacet
  facet normal 0 0 -1
    outer loop
      vertex 106.5 66.5 0
      vertex 126.5 86.5 0
      vertex 126.5 66.5 0
    endloop
  endfacet
  facet normal -0 0 -1
    outer loop
      vertex 126.5 86.5 0
      vertex 106.5 66.5 0
      vertex 106.5 86.5 0
    endloop
  endfacet
  facet normal 0 -1 0
    outer loop
      vertex 106.5 66.5 0
      vertex 126.5 66.5 0.5
      vertex 106.5 66.5 0.5
    endloop
  endfacet
  facet normal 0 -1 -0
    outer loop
      vertex 126.5 66.5 0.5
      vertex 106.5 66.5 0
      vertex 126.5 66.5 0
    endloop
  endfacet
  facet normal -1 0 0
    outer loop
      vertex 25 105 0
      vertex 25 128 0.5
      vertex 25 128 0
    endloop
  endfacet
  facet normal -1 -0 0
    outer loop
      vertex 25 128 0.5
      vertex 25 105 0
      vertex 25 105 0.5
    endloop
  endfacet
  facet normal 0 0 1
    outer loop
      vertex 48 128 0.5
      vertex 47 127 0.5
      vertex 48 105 0.5
    endloop
  endfacet
  facet normal 0 0 1
    outer loop
      vertex 48 128 0.5
      vertex 26 127 0.5
      vertex 47 127 0.5
    endloop
  endfacet
  facet normal 0 0 1
    outer loop
      vertex 26 127 0.5
      vertex 25 128 0.5
      vertex 26 106 0.5
    endloop
  endfacet
  facet normal -0 0 1
    outer loop
      vertex 25 128 0.5
      vertex 26 127 0.5
      vertex 48 128 0.5
    endloop
  endfacet
  facet normal -0 0 1
    outer loop
      vertex 47 106 0.5
      vertex 48 105 0.5
      vertex 47 127 0.5
    endloop
  endfacet
  facet normal -0 0 1
    outer loop
      vertex 26 106 0.5
      vertex 48 105 0.5
      vertex 47 106 0.5
    endloop
  endfacet
  facet normal 0 0 1
    outer loop
      vertex 26 106 0.5
      vertex 25 105 0.5
      vertex 48 105 0.5
    endloop
  endfacet
  facet normal 0 0 1
    outer loop
      vertex 25 105 0.5
      vertex 26 106 0.5
      vertex 25 128 0.5
    endloop
  endfacet
  facet normal 1 -0 0
    outer loop
      vertex 48 105 0.5
      vertex 48 128 0
      vertex 48 128 0.5
    endloop
  endfacet
  facet normal 1 0 0
    outer loop
      vertex 48 128 0
      vertex 48 105 0.5
      vertex 48 105 0
    endloop
  endfacet
  facet normal 0 0 -1
    outer loop
      vertex 48 105 0
      vertex 47 106 0
      vertex 48 128 0
    endloop
  endfacet
  facet normal 0 0 -1
    outer loop
      vertex 48 105 0
      vertex 26 106 0
      vertex 47 106 0
    endloop
  endfacet
  facet normal -0 0 -1
    outer loop
      vertex 26 106 0
      vertex 25 105 0
      vertex 26 127 0
    endloop
  endfacet
  facet normal 0 0 -1
    outer loop
      vertex 25 105 0
      vertex 26 106 0
      vertex 48 105 0
    endloop
  endfacet
  facet normal 0 0 -1
    outer loop
      vertex 47 127 0
      vertex 48 128 0
      vertex 47 106 0
    endloop
  endfacet
  facet normal 0 0 -1
    outer loop
      vertex 26 127 0
      vertex 48 128 0
      vertex 47 127 0
    endloop
  endfacet
  facet normal 0 0 -1
    outer loop
      vertex 26 127 0
      vertex 25 128 0
      vertex 48 128 0
    endloop
  endfacet
  facet normal 0 0 -1
    outer loop
      vertex 25 128 0
      vertex 26 127 0
      vertex 25 105 0
    endloop
  endfacet
  facet normal 0 -1 0
    outer loop
      vertex 25 105 0
      vertex 48 105 0.5
      vertex 25 105 0.5
    endloop
  endfacet
  facet normal 0 -1 -0
    outer loop
      vertex 48 105 0.5
      vertex 25 105 0
      vertex 48 105 0
    endloop
  endfacet
  facet normal 0 1 -0
    outer loop
      vertex 48 128 0
      vertex 25 128 0.5
      vertex 48 128 0.5
    endloop
  endfacet
  facet normal 0 1 0
    outer loop
      vertex 25 128 0.5
      vertex 48 128 0
      vertex 25 128 0
    endloop
  endfacet
  facet normal 1 -0 0
    outer loop
      vertex 26 106 0.5
      vertex 26 127 0
      vertex 26 127 0.5
    endloop
  endfacet
  facet normal 1 0 0
    outer loop
      vertex 26 127 0
      vertex 26 106 0.5
      vertex 26 106 0
    endloop
  endfacet
  facet normal -1 0 0
    outer loop
      vertex 47 106 0
      vertex 47 127 0.5
      vertex 47 127 0
    endloop
  endfacet
  facet normal -1 -0 0
    outer loop
      vertex 47 127 0.5
      vertex 47 106 0
      vertex 47 106 0.5
    endloop
  endfacet
  facet normal 0 1 -0
    outer loop
      vertex 47 106 0
      vertex 26 106 0.5
      vertex 47 106 0.5
    endloop
  endfacet
  facet normal 0 1 0
    outer loop
      vertex 26 106 0.5
      vertex 47 106 0
      vertex 26 106 0
    endloop
  endfacet
  facet normal 0 -1 0
    outer loop
      vertex 26 127 0
      vertex 47 127 0.5
      vertex 26 127 0.5
    endloop
  endfacet
  facet normal 0 -1 -0
    outer loop
      vertex 47 127 0.5
      vertex 26 127 0
      vertex 47 127 0
    endloop
  endfacet
  facet normal -1 0 0
    outer loop
      vertex 26.5 106.5 0
      vertex 26.5 126.5 0.5
      vertex 26.5 126.5 0
    endloop
  endfacet
  facet normal -1 -0 0
    outer loop
      vertex 26.5 126.5 0.5
      vertex 26.5 106.5 0
      vertex 26.5 106.5 0.5
    endloop
  endfacet
  facet normal -0 0 1
    outer loop
      vertex 26.5 126.5 0.5
      vertex 46.5 106.5 0.5
      vertex 46.5 126.5 0.5
    endloop
  endfacet
  facet normal 0 0 1
    outer loop
      vertex 46.5 106.5 0.5
      vertex 26.5 126.5 0.5
      vertex 26.5 106.5 0.5
    endloop
  endfacet
  facet normal 1 -0 0
    outer loop
      vertex 46.5 106.5 0.5
      vertex 46.5 126.5 0
      vertex 46.5 126.5 0.5
    endloop
  endfacet
  facet normal 1 0 0
    outer loop
      vertex 46.5 126.5 0
      vertex 46.5 106.5 0.5
      vertex 46.5 106.5 0
    endloop
  endfacet
  facet normal 0 1 -0
    outer loop
      vertex 46.5 126.5 0
      vertex 26.5 126.5 0.5
      vertex 46.5 126.5 0.5
    endloop
  endfacet
  facet normal 0 1 0
    outer loop
      vertex 26.5 126.5 0.5
      vertex 46.5 126.5 0
      vertex 26.5 126.5 0
    endloop
  endfacet
  facet normal 0 0 -1
    outer loop
      vertex 26.5 106.5 0
      vertex 46.5 126.5 0
      vertex 46.5 106.5 0
    endloop
  endfacet
  facet normal -0 0 -1
    outer loop
      vertex 46.5 126.5 0
      vertex 26.5 106.5 0
      vertex 26.5 126.5 0
    endloop
  endfacet
  facet normal 0 -1 0
    outer loop
      vertex 26.5 106.5 0
      vertex 46.5 106.5 0.5
      vertex 26.5 106.5 0.5
    endloop
  endfacet
  facet normal 0 -1 -0
    outer loop
      vertex 46.5 106.5 0.5
      vertex 26.5 106.5 0
      vertex 46.5 106.5 0
    endloop
  endfacet
  facet normal -1 0 0
    outer loop
      vertex 65 105 0
      vertex 65 128 0.5
      vertex 65 128 0
    endloop
  endfacet
  facet normal -1 -0 0
    outer loop
      vertex 65 128 0.5
      vertex 65 105 0
      vertex 65 105 0.5
    endloop
  endfacet
  facet normal 0 0 1
    outer loop
      vertex 88 128 0.5
      vertex 87 127 0.5
      vertex 88 105 0.5
    endloop
  endfacet
  facet normal 0 0 1
    outer loop
      vertex 88 128 0.5
      vertex 66 127 0.5
      vertex 87 127 0.5
    endloop
  endfacet
  facet normal 0 0 1
    outer loop
      vertex 66 127 0.5
      vertex 65 128 0.5
      vertex 66 106 0.5
    endloop
  endfacet
  facet normal -0 0 1
    outer loop
      vertex 65 128 0.5
      vertex 66 127 0.5
      vertex 88 128 0.5
    endloop
  endfacet
  facet normal -0 0 1
    outer loop
      vertex 87 106 0.5
      vertex 88 105 0.5
      vertex 87 127 0.5
    endloop
  endfacet
  facet normal -0 0 1
    outer loop
      vertex 66 106 0.5
      vertex 88 105 0.5
      vertex 87 106 0.5
    endloop
  endfacet
  facet normal 0 0 1
    outer loop
      vertex 66 106 0.5
      vertex 65 105 0.5
      vertex 88 105 0.5
    endloop
  endfacet
  facet normal 0 0 1
    outer loop
      vertex 65 105 0.5
      vertex 66 106 0.5
      vertex 65 128 0.5
    endloop
  endfacet
  facet normal 1 -0 0
    outer loop
      vertex 88 105 0.5
      vertex 88 128 0
      vertex 88 128 0.5
    endloop
  endfacet
  facet normal 1 0 0
    outer loop
      vertex 88 128 0
      vertex 88 105 0.5
      vertex 88 105 0
    endloop
  endfacet
  facet normal 0 0 -1
    outer loop
      vertex 88 105 0
      vertex 87 106 0
      vertex 88 128 0
    endloop
  endfacet
  facet normal 0 0 -1
    outer loop
      vertex 88 105 0
      vertex 66 106 0
      vertex 87 106 0
    endloop
  endfacet
  facet normal -0 0 -1
    outer loop
      vertex 66 106 0
      vertex 65 105 0
      vertex 66 127 0
    endloop
  endfacet
  facet normal 0 0 -1
    outer loop
      vertex 65 105 0
      vertex 66 106 0
      vertex 88 105 0
    endloop
  endfacet
  facet normal 0 0 -1
    outer loop
      vertex 87 127 0
      vertex 88 128 0
      vertex 87 106 0
    endloop
  endfacet
  facet normal 0 0 -1
    outer loop
      vertex 66 127 0
      vertex 88 128 0
      vertex 87 127 0
    endloop
  endfacet
  facet normal 0 0 -1
    outer loop
      vertex 66 127 0
      vertex 65 128 0
      vertex 88 128 0
    endloop
  endfacet
  facet normal 0 0 -1
    outer loop
      vertex 65 128 0
      vertex 66 127 0
      vertex 65 105 0
    endloop
  endfacet
  facet normal 0 -1 0
    outer loop
      vertex 65 105 0
      vertex 88 105 0.5
      vertex 65 105 0.5
    endloop
  endfacet
  facet normal 0 -1 -0
    outer loop
      vertex 88 105 0.5
      vertex 65 105 0
      vertex 88 105 0
    endloop
  endfacet
  facet normal 0 1 -0
    outer loop
      vertex 88 128 0
      vertex 65 128 0.5
      vertex 88 128 0.5
    endloop
  endfacet
  facet normal 0 1 0
    outer loop
      vertex 65 128 0.5
      vertex 88 128 0
      vertex 65 128 0
    endloop
  endfacet
  facet normal 1 -0 0
    outer loop
      vertex 66 106 0.5
      vertex 66 127 0
      vertex 66 127 0.5
    endloop
  endfacet
  facet normal 1 0 0
    outer loop
      vertex 66 127 0
      vertex 66 106 0.5
      vertex 66 106 0
    endloop
  endfacet
  facet normal -1 0 0
    outer loop
      vertex 87 106 0
      vertex 87 127 0.5
      vertex 87 127 0
    endloop
  endfacet
  facet normal -1 -0 0
    outer loop
      vertex 87 127 0.5
      vertex 87 106 0
      vertex 87 106 0.5
    endloop
  endfacet
  facet normal 0 1 -0
    outer loop
      vertex 87 106 0
      vertex 66 106 0.5
      vertex 87 106 0.5
    endloop
  endfacet
  facet normal 0 1 0
    outer loop
      vertex 66 106 0.5
      vertex 87 106 0
      vertex 66 106 0
    endloop
  endfacet
  facet normal 0 -1 0
    outer loop
      vertex 66 127 0
      vertex 87 127 0.5
      vertex 66 127 0.5
    endloop
  endfacet
  facet normal 0 -1 -0
    outer loop
      vertex 87 127 0.5
      vertex 66 127 0
      vertex 87 127 0
    endloop
  endfacet
  facet normal -1 0 0
    outer loop
      vertex 66.5 106.5 0
      vertex 66.5 126.5 0.5
      vertex 66.5 126.5 0
    endloop
  endfacet
  facet normal -1 -0 0
    outer loop
      vertex 66.5 126.5 0.5
      vertex 66.5 106.5 0
      vertex 66.5 106.5 0.5
    endloop
  endfacet
  facet normal -0 0 1
    outer loop
      vertex 66.5 126.5 0.5
      vertex 86.5 106.5 0.5
      vertex 86.5 126.5 0.5
    endloop
  endfacet
  facet normal 0 0 1
    outer loop
      vertex 86.5 106.5 0.5
      vertex 66.5 126.5 0.5
      vertex 66.5 106.5 0.5
    endloop
  endfacet
  facet normal 1 -0 0
    outer loop
      vertex 86.5 106.5 0.5
      vertex 86.5 126.5 0
      vertex 86.5 126.5 0.5
    endloop
  endfacet
  facet normal 1 0 0
    outer loop
      vertex 86.5 126.5 0
      vertex 86.5 106.5 0.5
      vertex 86.5 106.5 0
    endloop
  endfacet
  facet normal 0 1 -0
    outer loop
      vertex 86.5 126.5 0
      vertex 66.5 126.5 0.5
      vertex 86.5 126.5 0.5
    endloop
  endfacet
  facet normal 0 1 0
    outer loop
      vertex 66.5 126.5 0.5
      vertex 86.5 126.5 0
      vertex 66.5 126.5 0
    endloop
  endfacet
  facet normal 0 0 -1
    outer loop
      vertex 66.5 106.5 0
      vertex 86.5 126.5 0
      vertex 86.5 106.5 0
    endloop
  endfacet
  facet normal -0 0 -1
    outer loop
      vertex 86.5 126.5 0
      vertex 66.5 106.5 0
      vertex 66.5 126.5 0
    endloop
  endfacet
  facet normal 0 -1 0
    outer loop
      vertex 66.5 106.5 0
      vertex 86.5 106.5 0.5
      vertex 66.5 106.5 0.5
    endloop
  endfacet
  facet normal 0 -1 -0
    outer loop
      vertex 86.5 106.5 0.5
      vertex 66.5 106.5 0
      vertex 86.5 106.5 0
    endloop
  endfacet
  facet normal -1 0 0
    outer loop
      vertex 105 105 0
      vertex 105 128 0.5
      vertex 105 128 0
    endloop
  endfacet
  facet normal -1 -0 0
    outer loop
      vertex 105 128 0.5
      vertex 105 105 0
      vertex 105 105 0.5
    endloop
  endfacet
  facet normal 0 0 1
    outer loop
      vertex 128 128 0.5
      vertex 127 127 0.5
      vertex 128 105 0.5
    endloop
  endfacet
  facet normal 0 0 1
    outer loop
      vertex 128 128 0.5
      vertex 106 127 0.5
      vertex 127 127 0.5
    endloop
  endfacet
  facet normal 0 0 1
    outer loop
      vertex 106 127 0.5
      vertex 105 128 0.5
      vertex 106 106 0.5
    endloop
  endfacet
  facet normal -0 0 1
    outer loop
      vertex 105 128 0.5
      vertex 106 127 0.5
      vertex 128 128 0.5
    endloop
  endfacet
  facet normal -0 0 1
    outer loop
      vertex 127 106 0.5
      vertex 128 105 0.5
      vertex 127 127 0.5
    endloop
  endfacet
  facet normal -0 0 1
    outer loop
      vertex 106 106 0.5
      vertex 128 105 0.5
      vertex 127 106 0.5
    endloop
  endfacet
  facet normal 0 0 1
    outer loop
      vertex 106 106 0.5
      vertex 105 105 0.5
      vertex 128 105 0.5
    endloop
  endfacet
  facet normal 0 0 1
    outer loop
      vertex 105 105 0.5
      vertex 106 106 0.5
      vertex 105 128 0.5
    endloop
  endfacet
  facet normal 1 -0 0
    outer loop
      vertex 128 105 0.5
      vertex 128 128 0
      vertex 128 128 0.5
    endloop
  endfacet
  facet normal 1 0 0
    outer loop
      vertex 128 128 0
      vertex 128 105 0.5
      vertex 128 105 0
    endloop
  endfacet
  facet normal 0 0 -1
    outer loop
      vertex 128 105 0
      vertex 127 106 0
      vertex 128 128 0
    endloop
  endfacet
  facet normal 0 0 -1
    outer loop
      vertex 128 105 0
      vertex 106 106 0
      vertex 127 106 0
    endloop
  endfacet
  facet normal -0 0 -1
    outer loop
      vertex 106 106 0
      vertex 105 105 0
      vertex 106 127 0
    endloop
  endfacet
  facet normal 0 0 -1
    outer loop
      vertex 105 105 0
      vertex 106 106 0
      vertex 128 105 0
    endloop
  endfacet
  facet normal 0 0 -1
    outer loop
      vertex 127 127 0
      vertex 128 128 0
      vertex 127 106 0
    endloop
  endfacet
  facet normal 0 0 -1
    outer loop
      vertex 106 127 0
      vertex 128 128 0
      vertex 127 127 0
    endloop
  endfacet
  facet normal 0 0 -1
    outer loop
      vertex 106 127 0
      vertex 105 128 0
      vertex 128 128 0
    endloop
  endfacet
  facet normal 0 0 -1
    outer loop
      vertex 105 128 0
      vertex 106 127 0
      vertex 105 105 0
    endloop
  endfacet
  facet normal 0 -1 0
    outer loop
      vertex 105 105 0
      vertex 128 105 0.5
      vertex 105 105 0.5
    endloop
  endfacet
  facet normal 0 -1 -0
    outer loop
      vertex 128 105 0.5
      vertex 105 105 0
      vertex 128 105 0
    endloop
  endfacet
  facet normal 0 1 -0
    outer loop
      vertex 128 128 0
      vertex 105 128 0.5
      vertex 128 128 0.5
    endloop
  endfacet
  facet normal 0 1 0
    outer loop
      vertex 105 128 0.5
      vertex 128 128 0
      vertex 105 128 0
    endloop
  endfacet
  facet normal 1 -0 0
    outer loop
      vertex 106 106 0.5
      vertex 106 127 0
      vertex 106 127 0.5
    endloop
  endfacet
  facet normal 1 0 0
    outer loop
      vertex 106 127 0
      vertex 106 106 0.5
      vertex 106 106 0
    endloop
  endfacet
  facet normal -1 0 0
    outer loop
      vertex 127 106 0
      vertex 127 127 0.5
      vertex 127 127 0
    endloop
  endfacet
  facet normal -1 -0 0
    outer loop
      vertex 127 127 0.5
      vertex 127 106 0
      vertex 127 106 0.5
    endloop
  endfacet
  facet normal 0 1 -0
    outer loop
      vertex 127 106 0
      vertex 106 106 0.5
      vertex 127 106 0.5
    endloop
  endfacet
  facet normal 0 1 0
    outer loop
      vertex 106 106 0.5
      vertex 127 106 0
      vertex 106 106 0
    endloop
  endfacet
  facet normal 0 -1 0
    outer loop
      vertex 106 127 0
      vertex 127 127 0.5
      vertex 106 127 0.5
    endloop
  endfacet
  facet normal 0 -1 -0
    outer loop
      vertex 127 127 0.5
      vertex 106 127 0
      vertex 127 127 0
    endloop
  endfacet
  facet normal -1 0 0
    outer loop
      vertex 106.5 106.5 0
      vertex 106.5 126.5 0.5
      vertex 106.5 126.5 0
    endloop
  endfacet
  facet normal -1 -0 0
    outer loop
      vertex 106.5 126.5 0.5
      vertex 106.5 106.5 0
      vertex 106.5 106.5 0.5
    endloop
  endfacet
  facet normal -0 0 1
    outer loop
      vertex 106.5 126.5 0.5
      vertex 126.5 106.5 0.5
      vertex 126.5 126.5 0.5
    endloop
  endfacet
  facet normal 0 0 1
    outer loop
      vertex 126.5 106.5 0.5
      vertex 106.5 126.5 0.5
      vertex 106.5 106.5 0.5
    endloop
  endfacet
  facet normal 1 -0 0
    outer loop
      vertex 126.5 106.5 0.5
      vertex 126.5 126.5 0
      vertex 126.5 126.5 0.5
    endloop
  endfacet
  facet normal 1 0 0
    outer loop
      vertex 126.5 126.5 0
      vertex 126.5 106.5 0.5
      vertex 126.5 106.5 0
    endloop
  endfacet
  facet normal 0 1 -0
    outer loop
      vertex 126.5 126.5 0
      vertex 106.5 126.5 0.5
      vertex 126.5 126.5 0.5
    endloop
  endfacet
  facet normal 0 1 0
    outer loop
      vertex 106.5 126.5 0.5
      vertex 126.5 126.5 0
      vertex 106.5 126.5 0
    endloop
  endfacet
  facet normal 0 0 -1
    outer loop
      vertex 106.5 106.5 0
      vertex 126.5 126.5 0
      vertex 126.5 106.5 0
    endloop
  endfacet
  facet normal -0 0 -1
    outer loop
      vertex 126.5 126.5 0
      vertex 106.5 106.5 0
      vertex 106.5 126.5 0
    endloop
  endfacet
  facet normal 0 -1 0
    outer loop
      vertex 106.5 106.5 0
      vertex 126.5 106.5 0.5
      vertex 106.5 106.5 0.5
    endloop
  endfacet
  facet normal 0 -1 -0
    outer loop
      vertex 126.5 106.5 0.5
      vertex 106.5 106.5 0
      vertex 126.5 106.5 0
    endloop
  endfacet
endsolid OpenSCAD_Model
