solid OpenSCAD_Model
  facet normal -1 0 0
    outer loop
      vertex 7.5 -5 0
      vertex 7.5 5 8.5
      vertex 7.5 5 0
    endloop
  endfacet
  facet normal -1 -0 0
    outer loop
      vertex 7.5 5 8.5
      vertex 7.5 -5 0
      vertex 7.5 -5 8.5
    endloop
  endfacet
  facet normal -0 0 1
    outer loop
      vertex -17.5 5 10
      vertex 17.5 -5 10
      vertex 17.5 5 10
    endloop
  endfacet
  facet normal 0 0 1
    outer loop
      vertex 17.5 -5 10
      vertex -17.5 5 10
      vertex -17.5 -5 10
    endloop
  endfacet
  facet normal 1 -0 0
    outer loop
      vertex 17.5 -5 10
      vertex 17.5 5 0
      vertex 17.5 5 10
    endloop
  endfacet
  facet normal 1 0 0
    outer loop
      vertex 17.5 5 0
      vertex 17.5 -5 10
      vertex 17.5 -5 0
    endloop
  endfacet
  facet normal 0 1 0
    outer loop
      vertex 17.5 5 10
      vertex 7.5 5 8.5
      vertex -17.5 5 10
    endloop
  endfacet
  facet normal 0 1 -0
    outer loop
      vertex 17.5 5 0
      vertex 7.5 5 8.5
      vertex 17.5 5 10
    endloop
  endfacet
  facet normal 0 1 0
    outer loop
      vertex 7.5 5 8.5
      vertex 17.5 5 0
      vertex 7.5 5 0
    endloop
  endfacet
  facet normal 0 1 -0
    outer loop
      vertex -7.5 5 8.5
      vertex -17.5 5 10
      vertex 7.5 5 8.5
    endloop
  endfacet
  facet normal 0 1 0
    outer loop
      vertex -17.5 5 0
      vertex -7.5 5 8.5
      vertex -7.5 5 0
    endloop
  endfacet
  facet normal 0 1 0
    outer loop
      vertex -7.5 5 8.5
      vertex -17.5 5 0
      vertex -17.5 5 10
    endloop
  endfacet
  facet normal 0 0 -1
    outer loop
      vertex 7.5 -5 0
      vertex 17.5 5 0
      vertex 17.5 -5 0
    endloop
  endfacet
  facet normal -0 0 -1
    outer loop
      vertex 17.5 5 0
      vertex 7.5 -5 0
      vertex 7.5 5 0
    endloop
  endfacet
  facet normal 0 -1 0
    outer loop
      vertex -17.5 -5 10
      vertex -7.5 -5 8.5
      vertex 17.5 -5 10
    endloop
  endfacet
  facet normal 0 -1 0
    outer loop
      vertex -17.5 -5 0
      vertex -7.5 -5 8.5
      vertex -17.5 -5 10
    endloop
  endfacet
  facet normal 0 -1 -0
    outer loop
      vertex -7.5 -5 8.5
      vertex -17.5 -5 0
      vertex -7.5 -5 0
    endloop
  endfacet
  facet normal 0 -1 0
    outer loop
      vertex 7.5 -5 8.5
      vertex 17.5 -5 10
      vertex -7.5 -5 8.5
    endloop
  endfacet
  facet normal 0 -1 0
    outer loop
      vertex 17.5 -5 0
      vertex 7.5 -5 8.5
      vertex 7.5 -5 0
    endloop
  endfacet
  facet normal 0 -1 0
    outer loop
      vertex 7.5 -5 8.5
      vertex 17.5 -5 0
      vertex 17.5 -5 10
    endloop
  endfacet
  facet normal -1 0 0
    outer loop
      vertex -17.5 -5 0
      vertex -17.5 5 10
      vertex -17.5 5 0
    endloop
  endfacet
  facet normal -1 -0 0
    outer loop
      vertex -17.5 5 10
      vertex -17.5 -5 0
      vertex -17.5 -5 10
    endloop
  endfacet
  facet normal 1 -0 0
    outer loop
      vertex -7.5 -5 8.5
      vertex -7.5 5 0
      vertex -7.5 5 8.5
    endloop
  endfacet
  facet normal 1 0 0
    outer loop
      vertex -7.5 5 0
      vertex -7.5 -5 8.5
      vertex -7.5 -5 0
    endloop
  endfacet
  facet normal 0 0 -1
    outer loop
      vertex -17.5 -5 0
      vertex -7.5 5 0
      vertex -7.5 -5 0
    endloop
  endfacet
  facet normal -0 0 -1
    outer loop
      vertex -7.5 5 0
      vertex -17.5 -5 0
      vertex -17.5 5 0
    endloop
  endfacet
  facet normal 0 0 -1
    outer loop
      vertex -7.5 -5 8.5
      vertex 7.5 5 8.5
      vertex 7.5 -5 8.5
    endloop
  endfacet
  facet normal -0 0 -1
    outer loop
      vertex 7.5 5 8.5
      vertex -7.5 -5 8.5
      vertex -7.5 5 8.5
    endloop
  endfacet
endsolid OpenSCAD_Model
